<svg xmlns="http://www.w3.org/2000/svg" version="1.1" xmlns:xlink="http://www.w3.org/1999/xlink" xmlns:svgjs="http://svgjs.dev/svgjs" width="2000" height="2855" viewBox="0 0 2000 2855"><g transform="matrix(1,0,0,1,0.6494763025731345,1.155870445344135)"><svg viewBox="0 0 173 247" data-background-color="#ffffff" preserveAspectRatio="xMidYMid meet" height="2855" width="2000" xmlns="http://www.w3.org/2000/svg" xmlns:xlink="http://www.w3.org/1999/xlink"><g id="tight-bounds" transform="matrix(1,0,0,1,-0.056179700172577896,-0.09999999999999432)"><svg viewBox="0 0 173.11235940034516 247.2" height="247.2" width="173.11235940034516"><g><svg viewBox="0 0 259.66196083086055 370.7906064" height="247.2" width="173.11235940034516"><g><svg viewBox="0 0 259.66196083086055 370.7906064" height="370.7906064" width="259.66196083086055"><g id="textblocktransform"><svg viewBox="0 0 259.66196083086055 370.7906064" height="370.7906064" width="259.66196083086055" id="textblock"><g><rect width="259.66196083086055" height="247.2" fill="none" stroke-width="9.018103199999999" stroke="#35185a" data-fill-palette-color="none" data-stroke-palette-color="tertiary"></rect><rect width="259.66196083086055" height="123.5906064" y="247.2" fill="#35185a" data-fill-palette-color="tertiary"></rect></g><g><svg viewBox="0 0 259.66196083086055 247.2" height="247.2" width="259.66196083086055"><g transform="matrix(1,0,0,1,23.607599999999998,23.607599999999998)"><svg width="212.44676083086054" viewBox="-1 -33.7 35.8 33.7" height="199.9848" data-palette-color="#35185a"><path d="M31.15-2.75L34.8-2.35 34.75 0 21.35 0 21.05-1.6Q22.65-2.35 25.95-3.35L25.95-3.35 23.3-10.05 9.8-10.05 7-2.95 12.25-2.35 12.2 0-0.7 0-1-1.6Q0.25-2.2 3.15-3.1L3.15-3.1 14.85-31.45 14.5-32.35 18.45-33.7 31.15-2.75ZM11-13.1L22.1-13.1 16.5-27.2 11-13.1Z" opacity="1" transform="matrix(1,0,0,1,0,0)" fill="#35185a" class="wordmark-text-0" data-fill-palette-color="primary" id="text-0"></path></svg></g></svg></g></svg></g></svg></g></svg></g><defs></defs></svg><rect width="173.11235940034516" height="247.2" fill="none" stroke="none" visibility="hidden"></rect></g></svg></g></svg>